<svg width="351" height="343" viewBox="0 0 351 343" fill="none" xmlns="http://www.w3.org/2000/svg">
<path d="M396.144 65.8206C381.895 49.9025 370.865 30.9003 353.835 17.9098C327.084 -2.53737 288.585 -4.53131 257.306 8.31412C226.026 21.1588 201.659 47.0509 185.599 76.3692C177.151 91.7945 170.515 108.621 158.136 121.226C147.671 131.875 133.916 138.67 120.875 146.07C99.8493 157.969 79.6005 172.347 65.9935 192.075C52.3878 211.804 46.3045 237.714 55.0022 259.948C60.8674 274.95 72.6815 286.887 84.7843 297.694C99.0273 310.401 114.336 322.299 132.003 329.87C154.12 339.289 178.673 341.315 202.751 342.273C245.437 343.966 288.191 342.701 330.695 338.488C365.501 335.043 401.36 329.163 430.481 310.129C471.274 283.474 492.307 234.636 497.042 186.745C498.969 167.591 498.481 147.685 490.952 129.913C472.945 87.4034 424.359 97.3461 396.144 65.8206H396.144Z" fill="#EFF1F7"/>
<path d="M121.148 152.108C121.148 152.108 109.87 150.096 106.711 158.025C103.552 165.954 106.711 193.337 106.711 193.337L148.788 223.55L121.148 152.108Z" fill="#3F3D56"/>
<path d="M174.064 273.191L157.381 277.975C154.957 278.664 152.414 277.325 151.693 274.981C150.982 272.634 152.364 270.172 154.784 269.473L171.444 264.686C173.867 263.996 176.409 265.332 177.132 267.675C177.851 270.018 176.48 272.483 174.064 273.191Z" fill="#2BD0D0"/>
<path d="M173.247 291.125C177.374 291.125 180.72 287.763 180.72 283.616C180.72 279.469 177.374 276.108 173.247 276.108C169.119 276.108 165.773 279.469 165.773 283.616C165.773 287.763 169.119 291.125 173.247 291.125Z" fill="#25233A"/>
<path d="M172.228 289.077C174.292 289.077 175.964 287.396 175.964 285.323C175.964 283.249 174.292 281.568 172.228 281.568C170.164 281.568 168.491 283.249 168.491 285.323C168.491 287.396 170.164 289.077 172.228 289.077Z" fill="#3F3D56"/>
<path d="M142.674 283.616C146.801 283.616 150.147 280.255 150.147 276.108C150.147 271.961 146.801 268.6 142.674 268.6C138.546 268.6 135.201 271.961 135.201 276.108C135.201 280.255 138.546 283.616 142.674 283.616Z" fill="#25233A"/>
<path d="M145.391 276.449C145.391 277.445 144.998 278.4 144.297 279.104C143.596 279.808 142.646 280.203 141.655 280.203C140.664 280.203 139.713 279.808 139.013 279.104C138.312 278.4 137.918 277.445 137.918 276.449C137.918 275.453 138.312 274.498 139.013 273.794C139.713 273.09 140.664 272.695 141.655 272.695C142.646 272.695 143.596 273.09 144.297 273.794C144.998 274.498 145.391 275.453 145.391 276.449Z" fill="url(#paint0_linear_166_182)"/>
<path d="M140.636 293.855C144.763 293.855 148.109 290.493 148.109 286.347C148.109 282.2 144.763 278.838 140.636 278.838C136.508 278.838 133.162 282.2 133.162 286.347C133.162 290.493 136.508 293.855 140.636 293.855Z" fill="#25233A"/>
<path d="M146.75 286.688C146.75 287.683 146.357 288.638 145.656 289.342C144.955 290.046 144.005 290.442 143.014 290.442C142.023 290.442 141.072 290.046 140.371 289.342C139.671 288.638 139.277 287.683 139.277 286.688C139.277 285.692 139.671 284.737 140.371 284.033C141.072 283.329 142.023 282.934 143.014 282.934C144.005 282.934 144.955 283.329 145.656 284.033C146.357 284.737 146.75 285.692 146.75 286.688Z" fill="#3F3D56"/>
<path d="M174.663 280.8L140.159 273.943C137.731 273.453 136.161 271.124 136.648 268.731C137.145 266.342 139.508 264.796 141.937 265.273L176.441 272.117C178.87 272.606 180.439 274.936 179.953 277.33C179.461 279.724 177.096 281.276 174.663 280.8Z" fill="#2BD0D0"/>
<path d="M153.544 225.598H163.056V265.869C163.056 268.508 160.927 270.647 158.302 270.647C157.041 270.647 155.832 270.143 154.941 269.247C154.05 268.351 153.549 267.136 153.549 265.869V225.598H153.544Z" fill="#2BD0D0"/>
<path d="M157.068 277.956L140.398 282.751C137.974 283.443 135.429 282.103 134.708 279.756C133.997 277.408 135.379 274.944 137.798 274.245L154.468 269.464C156.89 268.774 159.431 270.111 160.154 272.454C160.859 274.799 159.481 277.255 157.068 277.955V277.956Z" fill="#2BD0D0"/>
<path d="M160.338 277.651L158.215 278.027C157.57 278.139 156.915 278.178 156.262 278.144L157.149 277.988C157.736 277.89 158.308 277.717 158.852 277.473L160.338 277.651Z" fill="url(#paint1_linear_166_182)"/>
<path d="M177.323 268.421C177.325 269.475 176.976 270.499 176.331 271.33L162.377 268.361C162.73 267.854 162.983 267.283 163.123 266.68L171.72 264.003C172.273 263.835 172.855 263.783 173.43 263.851C174.004 263.919 174.558 264.105 175.058 264.398C176.077 264.99 176.83 265.984 177.152 267.161C177.264 267.57 177.321 267.995 177.323 268.421Z" fill="url(#paint2_linear_166_182)"/>
<path opacity="0.31" d="M153.014 267.305C152.915 266.954 152.865 266.591 152.865 266.226V226.28H156.903V269.33C156.862 269.542 156.875 269.758 156.941 269.965C156.319 269.748 155.667 269.63 155.008 269.616C154.54 269.589 154.067 269.589 153.598 269.616L153.887 269.548C154.065 269.521 153.247 268.121 153.014 267.305Z" fill="url(#paint3_linear_166_182)"/>
<path opacity="0.31" d="M178.199 280.067C177.54 280.424 176.799 280.611 176.045 280.61C175.742 280.61 175.439 280.58 175.142 280.522L159.918 277.514L158.65 277.266C158.215 277.593 157.724 277.838 157.201 277.987L156.447 278.203L140.804 282.753C138.416 283.44 135.91 282.109 135.201 279.776C136.557 281.008 138.617 281.122 140.108 280.049C142.018 278.755 149.621 276.812 153.927 275.778C155.963 275.302 157.52 273.697 157.901 271.683C157.911 271.565 157.929 271.447 157.955 271.33C158.672 272.09 159.991 272.942 162.374 273.667C168.244 275.434 177.774 276.604 177.774 276.604C177.774 276.604 179.495 278.256 178.199 280.067Z" fill="url(#paint4_linear_166_182)"/>
<path d="M179.361 278.838C178.997 279.375 178.536 279.838 178.003 280.204C178.461 279.754 178.914 279.299 179.361 278.838Z" fill="url(#paint5_linear_166_182)"/>
<path d="M153.748 266.933C153.938 267.736 154.337 268.473 154.903 269.07C154.76 269.096 154.614 269.132 154.468 269.173L140.016 273.377C137.794 272.822 136.33 270.739 136.589 268.5C136.848 266.261 138.75 264.554 141.043 264.504C141.351 264.505 141.658 264.535 141.961 264.594L153.748 266.933Z" fill="url(#paint6_linear_166_182)"/>
<path d="M175.964 75.0269C175.964 75.0269 175.777 60.826 164.364 62.0512C152.95 63.2751 153.826 58.5735 148.95 59.0895C144.076 59.6063 138.413 64.4041 140.039 70.3302C141.666 76.2563 135.737 77.5811 131.842 82.0772C127.947 86.5733 132.759 90.2517 139.32 94.6475C145.881 99.0433 138.912 97.9054 142.802 104.855C146.692 111.805 159.859 102.927 159.859 102.927L175.964 75.0269Z" fill="#503164"/>
<path d="M83.3379 310.647L91.3072 310.919V246.932C91.3072 246.932 91.7081 230.385 107.241 228.725C122.772 227.066 263.636 206.565 263.636 206.565C263.636 206.565 269.219 205.971 272.435 216.736C275.65 227.501 278.78 269.831 278.78 269.831L322.017 275.686C322.017 275.686 323.159 200.91 307.545 196.784C291.931 192.657 87.7438 213.684 87.7438 213.684C87.7438 213.684 72.6 293.103 83.3379 310.647Z" fill="#2BD0D0"/>
<path opacity="0.197" d="M83.3379 310.647L91.3072 310.919V246.932C91.3072 246.932 91.7081 230.385 107.241 228.725C122.772 227.066 263.636 206.565 263.636 206.565C263.636 206.565 269.219 205.971 272.435 216.736C275.65 227.501 278.78 269.831 278.78 269.831L322.017 275.686C322.017 275.686 323.159 200.91 307.545 196.784C291.931 192.657 87.7438 213.684 87.7438 213.684C87.7438 213.684 72.6 293.103 83.3379 310.647Z" fill="url(#paint7_linear_166_182)"/>
<path d="M42.1227 221.355C42.1227 221.355 46.0252 199.679 73.473 193.998L267.226 171.717C267.226 171.717 286.247 170.925 294.948 176.213C303.65 181.5 316.07 185.884 321.162 209.811C326.254 233.74 327.471 274.616 327.471 274.616L322.654 275.367C322.654 275.367 315.623 201.349 308.174 196.662C300.726 191.976 99.3255 220.726 99.3255 220.726C99.3255 220.726 85.3563 223.517 84.1395 244.297C82.9234 265.076 84.1395 310.237 84.1395 310.237L42.1227 293.211V221.355Z" fill="#2BD0D0"/>
<path opacity="0.19" d="M241.476 180.441C231.446 179.144 221.336 178.205 211.229 178.585C203.634 178.88 196.088 179.926 188.557 180.969L122.128 190.186C121 190.343 119.716 190.597 119.152 191.581C118.071 193.459 120.613 195.31 122.673 196.026C144.76 203.709 168.358 211.49 191.094 206.012C201.489 203.507 211.144 198.307 221.687 196.5C232.23 194.693 243.053 196.357 253.574 194.653C263.464 193.052 272.88 188.504 282.905 188.459C285.979 188.459 289.144 188.853 292.06 187.887C294.976 186.921 297.555 183.969 296.748 181.027C287.336 180.701 276.77 178.974 267.539 180.848C258.402 182.699 250.626 180.441 241.476 180.441Z" fill="url(#paint8_linear_166_182)"/>
<path d="M181.4 191.046L181.787 192.489C181.787 192.489 193.256 199.432 193.184 199.656C193.112 199.88 240.758 188.571 240.758 188.571L241.866 185.326L181.4 191.046Z" fill="#2BD0D0"/>
<path d="M181.4 191.046L181.787 192.489C181.787 192.489 193.256 199.432 193.184 199.656C193.112 199.88 240.758 188.571 240.758 188.571L241.866 185.326L181.4 191.046Z" fill="url(#paint9_linear_166_182)"/>
<path d="M182.079 191.035L224.275 181.913L241.866 185.363L193.929 196.93L182.079 191.035Z" fill="#2BD0D0"/>
<path d="M182.079 191.035L224.275 181.913L241.866 185.363L193.929 196.93L182.079 191.035Z" fill="url(#paint10_linear_166_182)"/>
<path d="M168.377 198.625L178.199 198.975C178.199 198.975 180.694 199.13 181.338 197.12C181.983 195.11 177.336 190.868 176.839 190.788C176.341 190.707 163.414 194.351 165.278 197.993L168.377 198.625Z" fill="#2BD0D0"/>
<path d="M168.377 198.625L178.199 198.975C178.199 198.975 180.694 199.13 181.338 197.12C181.983 195.11 177.336 190.868 176.839 190.788C176.341 190.707 163.414 194.351 165.278 197.993L168.377 198.625Z" fill="url(#paint11_linear_166_182)"/>
<path d="M53.6726 297.988L48.8774 312.785C34.968 317.802 23.1417 312.785 23.1417 312.785L19.7026 297.268C19.7026 297.268 37.051 303.11 53.6726 297.988Z" fill="#2BD0D0"/>
<path d="M53.6726 297.988L48.8774 312.785C34.968 317.802 23.1417 312.785 23.1417 312.785L19.7026 297.268C19.7026 297.268 37.051 303.11 53.6726 297.988Z" fill="url(#paint12_linear_166_182)"/>
<path d="M59.1078 284.299L57.556 295.864L53.625 297.917C36.8792 302.982 19.3731 297.208 19.3731 297.208L16.3545 294.967L14.9468 284.299H59.1078Z" fill="#2BD0D0"/>
<path d="M59.1078 284.299L57.556 295.864L53.625 297.917C36.8792 302.982 19.3731 297.208 19.3731 297.208L16.3545 294.967L14.9468 284.299H59.1078Z" fill="url(#paint13_linear_166_182)"/>
<path d="M37.0273 287.712C49.222 287.712 59.1078 285.878 59.1078 283.616C59.1078 281.355 49.222 279.521 37.0273 279.521C24.8325 279.521 14.9468 281.355 14.9468 283.616C14.9468 285.878 24.8325 287.712 37.0273 287.712Z" fill="#2BD0D0"/>
<path d="M37.0273 287.712C49.222 287.712 59.1078 285.878 59.1078 283.616C59.1078 281.355 49.222 279.521 37.0273 279.521C24.8325 279.521 14.9468 281.355 14.9468 283.616C14.9468 285.878 24.8325 287.712 37.0273 287.712Z" fill="url(#paint14_linear_166_182)"/>
<path d="M26.9321 194.902C24.7702 193.868 22.446 193.088 20.5756 191.578C16.807 188.507 15.8517 183.218 14.6716 178.474C13.4922 173.73 11.2087 168.513 6.55686 167.152C4.81624 166.649 2.77464 166.849 1.45117 168.101C0.0563624 169.421 -0.226947 171.589 0.154875 173.503C0.536019 175.417 1.46476 177.132 2.18288 178.946C3.85924 183.163 4.36913 187.756 3.65854 192.24C3.07086 195.919 1.66654 199.647 2.5681 203.253C4.09811 209.372 11.7196 212.959 11.9302 219.264C12.0743 223.519 8.61136 227.456 9.39607 231.643C9.97492 234.74 12.7965 237.158 12.9493 240.306C13.1192 243.876 9.78197 246.896 9.94367 250.466C10.1047 254.036 13.6308 256.421 15.9326 259.229C17.8636 261.592 19.0103 264.502 19.212 267.552C19.333 269.457 19.0904 271.43 19.7053 273.236C20.1537 274.555 21.0505 275.676 21.7462 276.864C22.5139 278.148 23.0921 279.536 24.0161 280.724C25.1724 282.203 26.7456 283.297 28.5304 283.863C30.3151 284.43 32.2283 284.442 34.0202 283.899C34.7336 279.155 34.1099 274.316 34.3076 269.521C34.6976 260.231 38.1741 250.87 35.9491 241.853C35.1331 238.546 33.563 235.407 33.2844 232.015C33.0378 228.984 33.8361 225.982 34.3925 222.993C35.5407 216.82 35.5231 210.438 35.0516 204.196C34.6799 199.244 31.234 196.962 26.9321 194.902Z" fill="#2BD0D0"/>
<path d="M40.5955 219.295C40.5595 223.433 41.4991 227.712 40.1797 231.64C39.181 234.617 36.9851 237.055 35.8512 239.983C33.2355 246.74 36.7548 254.317 36.0367 261.532C35.7378 264.504 34.7214 267.359 34.08 270.277C33.2832 273.972 33.088 277.772 33.5019 281.53C33.4598 282.214 33.6652 282.891 34.0802 283.435C34.4953 283.98 35.0921 284.356 35.7609 284.493C37.9748 285.34 40.268 285.961 42.6058 286.347C41.8154 281.972 42.6481 277.457 44.9463 273.658C48.5295 267.767 55.492 263.797 56.7883 257.031C57.6647 252.449 55.6231 247.8 55.7678 243.137C55.8721 240.033 56.9365 237.04 58.8129 234.572C60.4978 232.369 62.7799 230.666 64.348 228.381C68.1159 222.875 66.9412 215.516 65.8209 208.932C64.6999 202.347 64.0497 194.77 68.4774 189.781C69.8783 188.204 71.7031 187.021 72.9729 185.335C75.8013 181.578 75.0872 175.791 71.7976 172.433C68.5093 169.075 63.2134 168.147 58.7409 169.624C56.8547 170.181 55.1893 171.317 53.9783 172.873C51.7193 176.091 52.6229 180.486 53.5808 184.311C54.4165 187.633 55.0898 191.466 53.947 194.816C53.093 197.308 50.9285 198.659 49.0893 200.394C46.4838 202.811 44.389 205.73 42.9298 208.977C41.4705 212.224 40.6767 215.733 40.5955 219.295Z" fill="#2BD0D0"/>
<path d="M36.0503 255.987C35.413 260.487 34.4931 265.024 34.3042 269.537V269.991C34.2945 270.103 34.2691 270.213 34.2288 270.318C33.4327 274.016 33.2341 277.819 33.6404 281.581C33.6649 282.191 33.8178 282.788 34.0889 283.332C34.0671 283.523 34.0399 283.709 34.0134 283.899C32.221 284.442 30.3071 284.43 28.5218 283.863C26.7365 283.297 25.1627 282.203 24.0059 280.724C23.1091 279.535 22.5024 278.147 21.7353 276.864C21.0172 275.671 20.1421 274.55 19.6937 273.234C19.0789 271.42 19.3207 269.456 19.1998 267.551C18.9983 264.5 17.8513 261.589 15.9197 259.226C13.6172 256.436 10.0857 254.096 9.92872 250.467C9.77178 246.837 13.1056 243.876 12.9351 240.305C12.7829 237.157 9.95997 234.739 9.3818 231.641C8.59574 227.454 12.0736 223.517 11.9166 219.261C11.706 212.956 4.08181 209.368 2.55112 203.248C1.65431 199.642 3.05388 195.913 3.64156 192.234C4.35568 187.756 3.85193 183.166 2.18356 178.951C1.46544 177.137 0.536699 175.427 0.154877 173.508C-0.226267 171.59 0.0563639 169.425 1.45185 168.101C2.79842 166.849 4.8176 166.649 6.5589 167.152C11.2169 168.514 13.4915 173.749 14.6764 178.493C15.8612 183.239 16.8124 188.523 20.5817 191.599C22.4446 193.119 24.7777 193.89 26.9409 194.924C31.2483 196.984 34.6949 199.265 35.0631 204.173C35.5115 210.415 35.5523 216.798 34.4041 222.972C33.847 225.962 33.0575 228.965 33.2953 231.995C33.5331 235.025 34.8389 237.892 35.6916 240.831C35.786 241.162 35.8798 241.498 35.9606 241.834C37.0918 246.502 36.7283 251.224 36.0503 255.987Z" fill="#30C59B"/>
<path d="M33.7784 282.934C33.573 282.39 33.4578 281.816 33.4373 281.235C33.1452 277.577 33.2906 273.877 33.8701 270.282C33.8857 270.176 33.9054 270.071 33.9244 269.965C33.8083 274.296 34.1785 278.664 33.7784 282.934Z" fill="url(#paint15_linear_166_182)"/>
<path d="M72.9628 185.335C71.6916 187.021 69.8633 188.203 68.4604 189.781C64.0259 194.766 64.6775 202.347 65.7999 208.932C66.9215 215.516 68.0983 222.875 64.3242 228.382C62.7548 230.648 60.4693 232.369 58.781 234.572C56.9018 237.038 55.8354 240.032 55.7305 243.137C55.5864 247.799 57.6314 252.449 56.7537 257.031C55.4553 263.797 48.482 267.776 44.8934 273.658C42.6006 277.46 41.773 281.973 42.5671 286.346C40.2317 285.961 37.941 285.34 35.7296 284.493C35.1253 284.313 34.577 283.981 34.1371 283.527C34.0746 283.454 34.0185 283.375 33.9693 283.292C33.6889 282.752 33.527 282.159 33.4944 281.551C33.0874 277.793 33.2906 273.993 34.0963 270.3C34.1188 270.191 34.1459 270.082 34.1731 269.973C34.8158 267.168 35.7663 264.417 36.0557 261.553C36.2097 259.696 36.1732 257.829 35.947 255.979C36.6305 251.221 36.9967 246.504 35.8431 241.872C35.7616 241.538 35.6664 241.202 35.5713 240.871C35.6576 240.581 35.7568 240.29 35.8703 240.005C37.0062 237.078 39.2054 234.64 40.2048 231.662C41.5222 227.733 40.5853 223.455 40.6213 219.318C40.6804 212.171 43.898 205.27 49.0656 200.393C50.9067 198.658 53.0747 197.308 53.9301 194.815C55.0749 191.466 54.3825 187.633 53.5632 184.311C52.5998 180.486 51.6853 176.09 53.962 172.873C55.0932 171.278 56.8766 170.24 58.7314 169.624C63.193 168.146 68.5195 169.075 71.8091 172.433C75.0988 175.791 75.7959 181.6 72.9628 185.335Z" fill="#30C59B"/>
<path d="M153.254 113.755C153.254 113.755 134.355 116.69 125.614 137.63C116.872 158.569 121.418 184.511 121.57 186.793C121.723 189.076 148.358 198.977 155.972 198.977C163.587 198.977 165.172 191.313 165.172 191.313L151.718 185.557L192.598 180.813H199.938L195.895 187.661C195.895 187.661 203.873 188.5 209.206 188.692C214.537 188.884 218.159 178.29 218.756 173.021C219.354 167.754 195.203 121.516 191.595 118.777C187.988 116.038 178.2 109.346 153.254 113.755Z" fill="#2BD0D0"/>
<path d="M175.551 74.596C175.551 74.596 178.97 76.5277 178.663 82.7767C178.355 89.0256 176.428 98.4294 174.483 100.865C172.537 103.302 165.732 104.256 165.732 104.256C165.732 104.256 169.444 113.114 172.207 115.4C174.969 117.685 169.431 126.107 164.044 123.344C158.657 120.58 152.412 113.641 152.412 113.641C152.412 113.641 156.905 105.282 155.385 100.883C153.867 96.4841 148.067 81.045 152.412 76.828C156.758 72.6097 166.127 66.5656 175.551 74.596Z" fill="url(#paint16_linear_166_182)"/>
<path opacity="0.25" d="M145.618 143.689L142.674 180.585L151.668 185.326L158.98 184.044L149.857 172.779L145.618 143.689ZM192.95 141.641C192.95 141.641 205.117 170.362 199.723 180.548L195.568 179.756L192.95 141.641Z" fill="white"/>
<path d="M160.014 190.135C160.014 190.135 155.417 194.076 157.469 197.143C159.52 200.208 161.97 200.121 164.012 198.75C166.054 197.379 170.066 194.125 174.846 195.618C179.625 197.112 180.786 198.062 180.786 198.062C180.786 198.062 183.303 196.481 182.651 194.896C181.997 193.31 176.998 188.172 175.549 187.507C174.101 186.841 168.088 188.886 168.088 188.886C168.088 188.886 163.669 187.686 160.014 190.135Z" fill="url(#paint17_linear_166_182)"/>
<path d="M200.553 181.638C200.553 181.638 196.215 182.156 195.119 185.022C194.023 187.887 193.629 188.237 193.629 188.237C193.629 188.237 196.079 188.708 197.098 187.374C198.117 186.04 199.176 186.601 199.176 186.601L198.873 188.312C198.873 188.312 205.529 189.32 208.536 188.237C211.543 187.152 212.833 185.88 212.833 185.88L214.011 182.986C214.011 182.986 211.171 180.918 209.03 180.597C206.888 180.276 200.553 181.638 200.553 181.638Z" fill="url(#paint18_linear_166_182)"/>
<path d="M223.45 211.946C223.45 211.946 238.352 223.336 237.027 238.743C235.703 254.15 233.757 277.027 233.757 277.027C233.757 277.027 227.747 279.567 223.765 277.027C219.782 274.486 217.371 239.724 215.398 236.405C213.425 233.085 201.555 218.119 188.873 216.829L223.45 211.946Z" fill="#25233A"/>
<path d="M148.789 222.907C148.789 222.907 155.884 229.661 168.533 231.782C181.183 233.902 187.079 235.672 190.945 246.529C194.81 257.385 198.519 280.751 199.733 283.362C200.946 285.974 206.107 284.641 206.107 284.641C206.107 284.641 209.025 281.3 209.025 262.721C209.025 236.82 210.829 231.511 204.329 225.005C197.828 218.498 191.915 216.724 191.915 216.724L148.789 222.907Z" fill="#3F3D56"/>
<path d="M199.743 284.299L200.98 293.989H203.295C203.295 293.989 218.207 294.8 218.674 294.45C219.142 294.1 217.956 286.776 212.307 286.983C206.657 287.19 206.287 285.602 206.287 285.602L199.743 284.299ZM224.881 277.58L227.271 287.029L253.385 283.472C253.385 283.472 254.305 277.265 246.032 277.881C243.849 278.04 242.222 279.563 239.598 279.577C236.973 279.59 234.459 278.524 233.136 276.791L224.881 277.58Z" fill="#25233A"/>
<path d="M313.749 158.935L217.11 164.16C214.773 164.283 212.778 162.474 212.652 160.115V90.7709C212.654 87.9717 214.872 85.6871 217.644 85.6277L313.889 83.623C314.501 83.6106 315.109 83.7198 315.679 83.9444C316.248 84.1689 316.768 84.5044 317.208 84.9315C318.1 85.7966 318.614 86.9812 318.638 88.2263V153.733C318.635 156.502 316.489 158.786 313.749 158.935Z" fill="#2BD0D0"/>
<path d="M319.185 158.935L222.54 164.16C220.203 164.281 218.211 162.469 218.087 160.11V90.7708C218.085 87.9709 220.302 85.6843 223.075 85.6276L319.333 83.6229C321.899 83.5751 324.019 85.6317 324.074 88.2221V153.733C324.07 156.503 321.924 158.786 319.185 158.935Z" fill="#2BD0D0"/>
<path d="M319.185 158.935L222.54 164.16C220.203 164.281 218.211 162.469 218.087 160.11V90.7708C218.085 87.9709 220.302 85.6843 223.075 85.6276L319.333 83.6229C321.899 83.5751 324.019 85.6317 324.074 88.2221V153.733C324.07 156.503 321.924 158.786 319.185 158.935Z" fill="url(#paint19_linear_166_182)"/>
<path d="M290.629 185.42L265.97 188.056C265.97 188.056 258.461 186.534 258.867 185.42C259.274 184.305 267.126 183.232 267.126 183.232V138.316C267.058 138.217 266.024 136.894 263.193 136.051C262.644 135.888 262.087 135.757 261.522 135.662C261.037 135.59 260.565 135.447 260.122 135.236C258.438 134.362 260.299 132.84 262.913 132.772C263.322 132.757 263.732 132.781 264.137 132.844H283.101C283.101 132.844 290.281 134.873 290.629 145.001C290.976 155.13 290.629 185.42 290.629 185.42Z" fill="#3A3054"/>
<path d="M270.401 185.515L265.864 188.056C265.864 188.056 258.467 186.534 258.867 185.419C259.268 184.305 267.016 183.232 267.016 183.232V138.312C266.923 138.208 265.789 137.017 263.142 136.047C262.157 135.694 261.145 135.421 260.117 135.232C258.458 134.358 260.29 132.836 262.866 132.768C265.059 133.071 269.378 135.517 269.658 136.913C269.938 138.308 270.401 185.515 270.401 185.515Z" fill="#51466B"/>
<path d="M178.682 279.521C178.084 280.204 177.806 280.456 178.159 279.894C178.342 279.786 178.517 279.661 178.682 279.521Z" fill="url(#paint20_linear_166_182)"/>
<defs>
<linearGradient id="paint0_linear_166_182" x1="137.918" y1="648.11" x2="885.258" y2="648.11" gradientUnits="userSpaceOnUse">
<stop stop-color="#183866"/>
<stop offset="1" stop-color="#1A7FC1"/>
</linearGradient>
<linearGradient id="paint1_linear_166_182" x1="155.732" y1="311.66" x2="563.902" y2="311.66" gradientUnits="userSpaceOnUse">
<stop/>
<stop offset="0.99" stop-opacity="0"/>
</linearGradient>
<linearGradient id="paint2_linear_166_182" x1="2794.09" y1="-3985.86" x2="4534.4" y2="-3175.73" gradientUnits="userSpaceOnUse">
<stop/>
<stop offset="0.99" stop-opacity="0"/>
</linearGradient>
<linearGradient id="paint3_linear_166_182" x1="393.079" y1="-11044.3" x2="154.365" y2="-11109" gradientUnits="userSpaceOnUse">
<stop/>
<stop offset="0.99" stop-opacity="0"/>
</linearGradient>
<linearGradient id="paint4_linear_166_182" x1="6922.65" y1="-462.875" x2="1059.22" y2="-2369.33" gradientUnits="userSpaceOnUse">
<stop/>
<stop offset="0.99" stop-opacity="0"/>
</linearGradient>
<linearGradient id="paint5_linear_166_182" x1="3386.19" y1="-22362" x2="3116.38" y2="-22446.8" gradientUnits="userSpaceOnUse">
<stop/>
<stop offset="0.99" stop-opacity="0"/>
</linearGradient>
<linearGradient id="paint6_linear_166_182" x1="4564.55" y1="-3516.04" x2="2678.41" y2="-3016.92" gradientUnits="userSpaceOnUse">
<stop/>
<stop offset="0.99" stop-opacity="0"/>
</linearGradient>
<linearGradient id="paint7_linear_166_182" x1="25995.5" y1="2776.6" x2="-8547.2" y2="1121.49" gradientUnits="userSpaceOnUse">
<stop/>
<stop offset="1" stop-opacity="0"/>
</linearGradient>
<linearGradient id="paint8_linear_166_182" x1="2641.02" y1="-1034.72" x2="20441.1" y2="-1034.72" gradientUnits="userSpaceOnUse">
<stop stop-color="#183866"/>
<stop offset="1" stop-color="#1A7FC1"/>
</linearGradient>
<linearGradient id="paint9_linear_166_182" x1="2623.4" y1="751.729" x2="2839.91" y2="1589.07" gradientUnits="userSpaceOnUse">
<stop/>
<stop offset="0.99" stop-opacity="0"/>
</linearGradient>
<linearGradient id="paint10_linear_166_182" x1="-567.114" y1="856.504" x2="5235.52" y2="2704.59" gradientUnits="userSpaceOnUse">
<stop/>
<stop offset="0.99" stop-opacity="0"/>
</linearGradient>
<linearGradient id="paint11_linear_166_182" x1="1040.72" y1="537.023" x2="997.604" y2="866.581" gradientUnits="userSpaceOnUse">
<stop/>
<stop offset="0.99" stop-opacity="0"/>
</linearGradient>
<linearGradient id="paint12_linear_166_182" x1="6505.46" y1="-5616.84" x2="3493.1" y2="-5732.58" gradientUnits="userSpaceOnUse">
<stop/>
<stop offset="0.99" stop-opacity="0"/>
</linearGradient>
<linearGradient id="paint13_linear_166_182" x1="7459.52" y1="-1697.72" x2="4942.77" y2="-1783.35" gradientUnits="userSpaceOnUse">
<stop/>
<stop offset="0.99" stop-opacity="0"/>
</linearGradient>
<linearGradient id="paint14_linear_166_182" x1="2531.64" y1="636.79" x2="2438.98" y2="1092.73" gradientUnits="userSpaceOnUse">
<stop/>
<stop offset="0.99" stop-opacity="0"/>
</linearGradient>
<linearGradient id="paint15_linear_166_182" x1="72.733" y1="-18840.6" x2="-140.357" y2="-17534.7" gradientUnits="userSpaceOnUse">
<stop/>
<stop offset="0.99" stop-opacity="0"/>
</linearGradient>
<linearGradient id="paint16_linear_166_182" x1="149.712" y1="2732.34" x2="2936.31" y2="2732.34" gradientUnits="userSpaceOnUse">
<stop stop-color="#ECC4D7"/>
<stop offset="0.42" stop-color="#EFD4D1"/>
<stop offset="1" stop-color="#F2EAC9"/>
</linearGradient>
<linearGradient id="paint17_linear_166_182" x1="2713.7" y1="-1818.83" x2="5295.39" y2="-1818.83" gradientUnits="userSpaceOnUse">
<stop stop-color="#ECC4D7"/>
<stop offset="0.42" stop-color="#EFD4D1"/>
<stop offset="1" stop-color="#F2EAC9"/>
</linearGradient>
<linearGradient id="paint18_linear_166_182" x1="2727.23" y1="-512.086" x2="4765.43" y2="-512.086" gradientUnits="userSpaceOnUse">
<stop stop-color="#ECC4D7"/>
<stop offset="0.42" stop-color="#EFD4D1"/>
<stop offset="1" stop-color="#F2EAC9"/>
</linearGradient>
<linearGradient id="paint19_linear_166_182" x1="13878.7" y1="8167.01" x2="4198.29" y2="14575" gradientUnits="userSpaceOnUse">
<stop stop-color="#362958" stop-opacity="0.501"/>
<stop offset="1" stop-color="#34313D" stop-opacity="0"/>
</linearGradient>
<linearGradient id="paint20_linear_166_182" x1="2888.13" y1="-23071.7" x2="2808.87" y2="-23100.9" gradientUnits="userSpaceOnUse">
<stop/>
<stop offset="0.99" stop-opacity="0"/>
</linearGradient>
</defs>
</svg>
